<svg width="100%" height="100%" viewBox="0 0 82 82" fill="none" xmlns="http://www.w3.org/2000/svg">
<path d="M68 40.233C68 55.2624 55.6989 67.466 40.5 67.466C25.3011 67.466 13 55.2624 13 40.233C13 25.2037 25.3011 13 40.5 13C55.6989 13 68 25.2037 68 40.233Z" fill="white" stroke="url(#paint0_linear_11_31)"/>
<path d="M34.1798 59.0392C34.1803 58.9897 34.5262 56.6398 34.9484 53.8174L35.716 48.6858L31.7133 42.946C29.5118 39.789 27.6507 37.0909 27.5775 36.9499C27.3705 36.5514 27.3887 36.1316 27.6349 35.6309C27.7395 35.4171 28.947 33.5125 30.3182 31.3969C32.5076 28.019 32.8364 27.5363 33.0177 27.434C33.2613 27.2977 33.4217 27.2883 33.7362 27.3937C33.9901 27.4805 41.8545 31.237 42.0512 31.3662C42.2251 31.4808 42.2614 31.7516 42.1546 32.1365C42.0115 32.6517 41.7742 33.039 41.3266 33.4886C40.6326 34.1854 39.8525 34.4947 38.794 34.4925C37.9562 34.4907 37.1042 34.2756 36.2243 33.8415C36.0296 33.7455 35.8626 33.668 35.8532 33.668C35.8315 33.668 34.6174 36.0086 34.6174 36.0532C34.6174 36.0842 34.9657 36.2608 35.3915 36.4737C36.7071 37.129 37.6433 37.7793 38.6233 38.7191C40.7832 40.7907 42.1357 43.4179 43.082 47.3801C43.1099 47.4948 43.2793 46.6877 43.7245 44.3332C44.0596 42.5608 44.3528 41.1356 44.3811 41.1411C44.4089 41.1411 45.2956 41.5966 46.3509 42.1404C47.4062 42.6842 48.2998 43.1177 48.3365 43.1034C48.3734 43.0724 49.435 42.0087 50.6959 40.7021C51.9567 39.3955 53.0093 38.3244 53.0349 38.3213C53.1015 38.3213 53.0288 40.1651 52.9393 40.7105C52.8994 40.9583 52.8173 41.3081 52.7572 41.4891C52.6972 41.6688 51.7085 43.7169 50.5605 46.0376L48.473 50.2574V54.6934V59.1297H41.3259C34.5532 59.1297 34.1788 59.1291 34.1798 59.0392ZM42.8736 54.8718C43.1506 53.2334 43.3906 51.9544 43.4277 51.9175C43.4636 51.8803 43.9692 51.5116 44.5511 51.0949C45.3836 50.4981 45.5705 50.3438 45.4283 50.3708C44.1771 50.6062 43.0812 50.6372 42.2415 50.4606C41.6929 50.346 41.0744 50.1356 40.3195 49.8112L39.8809 49.6222L40.9711 50.7221L42.0613 51.822L42.1728 54.4304C42.2845 57.0451 42.3384 57.9833 42.3687 57.8389C42.378 57.7955 42.6048 56.4611 42.8736 54.8718ZM47.9311 41.3679C47.1611 40.9217 45.9352 39.4491 46.08 39.1442C46.1434 39.011 51.6114 32.9972 51.7009 32.9628C52.1227 32.8017 54.1021 35.172 54.2338 35.9971C54.2694 36.2202 54.6307 35.8701 51.0789 39.0605C49.5747 40.4115 48.3091 41.5167 48.2665 41.517C48.2238 41.5173 48.073 41.4485 47.9311 41.3679ZM44.9617 38.3563C43.8411 37.6182 42.2393 35.999 42.3484 35.7145C42.3638 35.6773 43.5865 33.9915 45.0671 31.9707C47.3592 28.8428 47.7778 28.2969 47.8852 28.2969C48.5538 28.2969 50.857 30.3475 51.4073 31.4325C51.6246 31.8607 51.7926 31.637 48.5412 35.2455C46.2428 37.7964 45.5347 38.5521 45.4321 38.5636C45.3448 38.5636 45.1838 38.5019 44.9617 38.3563ZM42.6087 34.0296C42.8159 33.2408 42.9075 32.5743 42.8899 31.9896C42.8682 31.316 42.8032 31.0988 42.5382 30.837C42.4611 30.7595 41.797 30.3868 41.0622 30.006C40.3274 29.6249 39.7201 29.3088 39.7126 29.3036C39.7063 29.3036 40.3566 28.1922 41.1605 26.8459L42.6221 24.3978H42.9545C43.2223 24.4009 43.3801 24.4443 43.7674 24.6116C45.3647 25.3084 47.3448 26.8815 47.221 27.3556C47.2024 27.4299 42.7023 34.0234 42.6005 34.1263C42.585 34.1263 42.5912 34.0953 42.6098 34.024L42.6087 34.0296ZM36.7331 27.9025C35.5695 27.3497 34.5999 26.88 34.5785 26.8586C34.5308 26.8121 37.1337 22.1013 37.2612 22.0043C37.4967 21.8246 38.4944 22.088 39.5713 22.6134C40.8075 23.2158 41.7128 23.9232 41.7128 24.2866C41.7128 24.4074 38.9784 28.9175 38.9082 28.9123C38.8756 28.9094 37.8968 28.4552 36.7331 27.9025Z" fill="black"/>
<path d="M35.0765 52.4524H48.3813V57.951H34.3408L35.0765 52.4524Z" fill="#5ECB2B"/>
<path d="M48.3811 52.4524H43.7827V57.951H48.3811V52.4524Z" fill="#E70000"/>
<path d="M43.8026 52.4524H38.9189V57.951H43.8026V52.4524Z" fill="#E7DE00"/>
<path d="M41.5767 54.9515L41.3605 54.2856L41.1443 54.9515H40.4448L41.0107 55.3629L40.7947 56.0289L41.3605 55.6175L41.9263 56.0289L41.7104 55.3629L42.2762 54.9515H41.5767Z" fill="#5ECB2B"/>
<defs>
<linearGradient id="paint0_linear_11_31" x1="7.60046" y1="46.9041" x2="35.6027" y2="40.1233" gradientUnits="userSpaceOnUse">
<stop stop-color="#A9A9A9"/>
<stop offset="1" stop-color="#666666" stop-opacity="0"/>
</linearGradient>
</defs>
</svg>
