<svg width="99" height="98" viewBox="0 0 99 98" fill="none" xmlns="http://www.w3.org/2000/svg">
<path d="M97 49C97 74.9383 75.7527 96 49.5 96C23.2473 96 2 74.9383 2 49C2 23.0617 23.2473 2 49.5 2C75.7527 2 97 23.0617 97 49Z" stroke="black" stroke-width="4"/>
<path d="M38.5771 78.7809C38.578 78.6998 39.1446 74.8536 39.8362 70.234L41.0936 61.8347L34.5367 52.4399C30.9304 47.2726 27.8817 42.8564 27.7618 42.6257C27.4226 41.9735 27.4525 41.2863 27.8557 40.4668C28.0271 40.1168 30.0052 36.9994 32.2514 33.5367C35.8378 28.0078 36.3765 27.2177 36.6735 27.0503C37.0726 26.8272 37.3352 26.8119 37.8505 26.9844C38.2664 27.1264 51.1492 33.275 51.4714 33.4865C51.7564 33.6741 51.8158 34.1173 51.6408 34.7472C51.4065 35.5906 51.0177 36.2245 50.2845 36.9604C49.1476 38.1009 47.8698 38.6071 46.1357 38.6035C44.7633 38.6005 43.3677 38.2485 41.9263 37.538C41.6073 37.3808 41.3338 37.254 41.3184 37.254C41.2829 37.254 39.294 41.085 39.294 41.158C39.294 41.2087 39.8645 41.4978 40.562 41.8462C42.7172 42.9188 44.2508 43.9833 45.8562 45.5215C49.3944 48.9122 51.6099 53.2123 53.1601 59.6976C53.2058 59.8853 53.4832 58.5642 54.2126 54.7104C54.7615 51.8095 55.2418 49.4767 55.2881 49.4858C55.3337 49.4858 56.7862 50.2313 58.5149 51.1213C60.2437 52.0114 61.7074 52.7209 61.7676 52.6975C61.828 52.6468 63.5671 50.9058 65.6325 48.7672C67.6979 46.6286 69.4222 44.8754 69.4642 44.8703C69.5733 44.8703 69.4541 47.8883 69.3075 48.7809C69.2421 49.1866 69.1077 49.7591 69.0093 50.0553C68.911 50.3495 67.2914 53.7017 65.4107 57.5002L61.9912 64.407V71.6677V78.929H50.2834C39.1888 78.929 38.5755 78.928 38.5771 78.7809ZM52.8186 71.9598C53.2724 69.2781 53.6656 67.1846 53.7264 67.1242C53.7852 67.0634 54.6134 66.4599 55.5666 65.7778C56.9304 64.801 57.2365 64.5484 57.0036 64.5926C54.954 64.978 53.1588 65.0287 51.7832 64.7396C50.8846 64.552 49.8714 64.2076 48.6348 63.6767L47.9163 63.3673L49.7022 65.1677L51.488 66.968L51.6706 71.2372C51.8537 75.5169 51.9419 77.0526 51.9916 76.8162C52.0068 76.7452 52.3783 74.561 52.8186 71.9598ZM61.1035 49.857C59.8422 49.1267 57.834 46.7163 58.0711 46.2173C58.175 45.9992 67.1323 36.1561 67.2788 36.0998C67.9699 35.836 71.2124 39.7157 71.4281 41.0662C71.4864 41.4314 72.0782 40.8583 66.26 46.0803C63.7959 48.2915 61.7227 50.1005 61.6529 50.101C61.5829 50.1015 61.336 49.9889 61.1035 49.857ZM56.2392 44.9276C54.4035 43.7196 51.7796 41.0693 51.9583 40.6037C51.9836 40.5428 53.9865 37.7835 56.4119 34.4759C60.1666 29.3563 60.8523 28.4627 61.0283 28.4627C62.1236 28.4627 65.8964 31.819 66.7979 33.595C67.1539 34.2959 67.4291 33.9297 62.1029 39.8359C58.3378 44.0112 57.1778 45.2481 57.0098 45.2669C56.8668 45.2669 56.6031 45.166 56.2392 44.9276ZM52.3848 37.8459C52.7241 36.5547 52.8742 35.4638 52.8453 34.5068C52.8098 33.4043 52.7033 33.0488 52.2693 32.6203C52.143 32.4935 51.0551 31.8834 49.8514 31.2601C48.6477 30.6363 47.6528 30.119 47.6405 30.1104C47.6303 30.1104 48.6955 28.2913 50.0124 26.0877L52.4067 22.0808H52.9512C53.3898 22.0859 53.6484 22.1569 54.2828 22.4307C56.8994 23.5713 60.143 26.1461 59.9402 26.922C59.9097 27.0437 52.5381 37.8357 52.3713 38.0041C52.3459 38.0041 52.3561 37.9534 52.3865 37.8367L52.3848 37.8459ZM42.7598 27.8171C40.8536 26.9124 39.2653 26.1435 39.2303 26.1085C39.1522 26.0325 43.416 18.3219 43.6248 18.1631C44.0107 17.869 45.645 18.3001 47.4091 19.1602C49.4342 20.1461 50.9172 21.3039 50.9172 21.8987C50.9172 22.0965 46.4378 29.4785 46.3228 29.4699C46.2695 29.4653 44.666 28.7218 42.7598 27.8171Z" fill="black"/>
<path d="M40.0452 68H61.84V77H38.84L40.0452 68Z" fill="#5ECB2B"/>
<rect x="54.3072" y="68" width="7.53275" height="9" fill="#E70000"/>
<rect width="8" height="9" transform="translate(46.34 68)" fill="#E7DE00"/>
<path d="M50.6942 72.0899L50.34 71L49.9858 72.0899H48.84L49.7669 72.7633L49.4131 73.8533L50.34 73.1799L51.2669 73.8533L50.9131 72.7633L51.84 72.0899H50.6942Z" fill="#5ECB2B"/>
</svg>
